<?xml version="1.0" encoding="utf-8"?>
<!-- Generator: Adobe Illustrator 21.1.0, SVG Export Plug-In . SVG Version: 6.00 Build 0)  -->
<svg version="1.1" id="Layer_1" xmlns="http://www.w3.org/2000/svg" xmlns:xlink="http://www.w3.org/1999/xlink" x="0px" y="0px"
	 viewBox="0 0 162 48" style="enable-background:new 0 0 162 48;" xml:space="preserve">
<style type="text/css">
	.st0{fill:#FFFFFF;}
	.st1{fill-rule:evenodd;clip-rule:evenodd;fill:#FFFFFF;}
</style>
<g>
	<polygon class="st0" points="20.8,23.8 21.1,23.9 21.1,24.3 18.3,25.9 18,25.4 20.8,23.8 	"/>
	<polygon class="st0" points="8.8,30.6 9.1,31.2 12.1,29.5 11.8,28.9 8.8,30.6 	"/>
	<polygon class="st0" points="13.5,28 13.8,28.5 16.6,26.9 16.3,26.4 13.5,28 	"/>
	<polygon class="st0" points="27.2,23.8 26.9,23.9 26.9,24.3 29.7,25.9 30,25.4 27.2,23.8 	"/>
	<polygon class="st0" points="39.2,30.6 38.9,31.2 35.9,29.5 36.2,28.9 39.2,30.6 	"/>
	<polygon class="st0" points="34.5,28 34.2,28.5 31.4,26.9 31.7,26.4 34.5,28 	"/>
	<polygon class="st1" points="24.3,13.6 23.6,13.6 23.6,10.3 24.3,10.3 24.3,13.6 	"/>
	<polygon class="st1" points="24.3,18.8 24,18.9 23.6,18.8 23.6,15.5 24.3,15.5 24.3,18.8 	"/>
	<polygon class="st1" points="23.6,5 24.3,5 24.3,8.4 23.6,8.4 23.6,5 	"/>
	<path class="st0" d="M24.7,2.3l16.2,9.4l0.5,0.3l0.2,0.1v0.2v0.6v9.4v9.4v0.6v0.2l-0.2,0.1l-0.5,0.3l-8.1,4.7L28.7,40l-0.5,0.3
		v-0.6v-2.5V37l0.2-0.1l3.1-1.8l5.8-3.3l0,0l1.6-0.9l0-1.6v-6.9v-6.9l-13.4,7.7v19.5v0.6v1.9v0.2l-0.2,0.1l-0.5,0.3L24.2,46L24,46.1
		L23.8,46l-0.5-0.3l-0.5-0.3l-0.2-0.1v-0.2v-1.9v-0.6V23.1L9.2,15.4v6.9v7.3v0.8l0,0l0,0.4l1,0.6l6.4,3.7l3.1,1.8l0.2,0.1v0.2v2.5
		v0.6L19.3,40l-4.2-2.4h0L7,32.9l-0.5-0.3l-0.2-0.1v-0.2v-0.6v-9.4v-9.4v-0.6v-0.2L6.5,12L7,11.6c5.4-3.1,10.8-6.2,16.2-9.4h0
		L23.8,2L24,1.9L24.2,2L24.7,2.3L24.7,2.3L24.7,2.3z M10.6,12.9L24,20.6l13.4-7.7L25.1,5.8L24,5.2l-2.2,1.3l-0.2,0.1
		C18,8.6,14.3,10.8,10.6,12.9L10.6,12.9z"/>
	<path class="st0" d="M130.9,26.4c-0.9,1-2.3,1.6-3.7,1.6c-1.5,0-2.8-0.5-3.7-1.5c-0.9-0.9-1.4-2.3-1.4-3.9c0-1.3,0.4-2.4,1.2-3.3
		c0.7-0.9,1.8-1.5,3-1.7l0,0c0.3,0,0.6-0.1,0.9-0.1c0.3,0,0.5,0,0.8,0.1l0,0c1.2,0.2,2.3,0.8,3.1,1.7c0.8,0.9,1.2,2,1.2,3.3
		C132.3,24.2,131.8,25.5,130.9,26.4L130.9,26.4z M127.8,19c-0.4-0.1-0.9-0.1-1.3,0v0c-0.9,0.1-1.6,0.6-2.1,1.2
		c-0.5,0.6-0.8,1.5-0.8,2.5c0,1.2,0.4,2.1,1,2.8c0.6,0.7,1.6,1.1,2.6,1.1c1,0,1.9-0.4,2.6-1.1c0.6-0.7,1-1.6,1-2.8
		c0-0.9-0.3-1.8-0.8-2.4C129.4,19.6,128.7,19.1,127.8,19L127.8,19z"/>
	<path class="st0" d="M146.3,18.1c0.1-0.2,0.3-0.4,0.7-0.4h7.9c0.4,0,0.6,0.2,0.7,0.4h0c0,0.1,0.1,0.2,0.1,0.3c0,0.1,0,0.2-0.1,0.3
		h0c-0.1,0.2-0.3,0.4-0.7,0.4h-3.2c0,1.6,0,2.8,0,3.9c0,1.6,0,3.2,0,4.2c0,0.2-0.1,0.4-0.2,0.5c-0.2,0.2-0.4,0.2-0.6,0.2
		c-0.2,0-0.4-0.1-0.5-0.2c-0.1-0.1-0.2-0.3-0.2-0.5v-8.1H147c-0.4,0-0.6-0.2-0.7-0.4h0c0-0.1-0.1-0.2-0.1-0.3
		C146.2,18.3,146.3,18.2,146.3,18.1L146.3,18.1z"/>
	<path class="st0" d="M142.9,27.7l-3-3.3h-2.7v2.8c0,0.4-0.2,0.6-0.5,0.7h0c-0.1,0-0.2,0.1-0.3,0.1l0,0c-0.1,0-0.2,0-0.3-0.1h0
		c-0.3-0.1-0.5-0.3-0.5-0.7v-8.8c0-0.2,0.1-0.4,0.2-0.5l0,0c0.1-0.1,0.3-0.2,0.6-0.2h3.6c1.3,0,2.3,0.4,3,0.9
		c0.8,0.6,1.2,1.6,1.2,2.6c0,0.8-0.2,1.6-0.8,2.1c-0.4,0.5-1,0.8-1.8,1l2.2,2.4l0,0c0.3,0.3,0.3,0.6,0.2,0.8c0,0.1-0.1,0.2-0.2,0.3
		c-0.1,0.1-0.2,0.1-0.3,0.2C143.4,28,143.1,28,142.9,27.7L142.9,27.7L142.9,27.7z M140,19.1h-2.9V23h2.9v0l0.2,0
		c0.9,0,1.5-0.2,1.9-0.6c0.4-0.3,0.6-0.8,0.6-1.2h0l0-0.1v0c0-0.6-0.3-1.1-0.7-1.5C141.5,19.3,140.9,19.1,140,19.1L140,19.1z"/>
	<path class="st0" d="M118.3,24c-0.7,0.6-1.7,0.9-3,0.9h-2.5v2.3c0,0.4-0.2,0.6-0.5,0.7h0c-0.1,0-0.2,0.1-0.3,0.1
		c-0.1,0-0.2,0-0.3-0.1c-0.3-0.1-0.5-0.3-0.5-0.7v-8.8c0-0.2,0.1-0.4,0.2-0.5l0,0c0.1-0.1,0.3-0.2,0.5-0.2h3.3c1.3,0,2.2,0.4,2.9,1
		c0.8,0.7,1.2,1.7,1.2,2.7C119.5,22.4,119.1,23.3,118.3,24L118.3,24z M115.4,19.1h-2.6v4.5h2.5v0l0.1,0c0.9,0,1.5-0.3,1.9-0.7
		c0.4-0.4,0.6-0.9,0.6-1.4h0l0-0.1v0c0-0.6-0.3-1.2-0.8-1.7C116.8,19.3,116.2,19.1,115.4,19.1L115.4,19.1z"/>
	<path class="st0" d="M94.4,26.4c-0.9,1-2.3,1.6-3.7,1.6c-1.5,0-2.8-0.5-3.7-1.5c-0.9-0.9-1.4-2.3-1.4-3.9c0-1.3,0.4-2.4,1.2-3.3
		c0.7-0.9,1.8-1.5,3-1.7l0,0c0.3,0,0.6-0.1,0.9-0.1c0.3,0,0.5,0,0.8,0.1l0,0c1.2,0.2,2.3,0.8,3.1,1.7c0.8,0.9,1.2,2,1.2,3.3
		C95.9,24.2,95.3,25.5,94.4,26.4L94.4,26.4z M91.3,19c-0.4-0.1-0.9-0.1-1.3,0v0c-0.9,0.1-1.6,0.6-2.1,1.2c-0.5,0.6-0.8,1.5-0.8,2.5
		c0,1.2,0.4,2.1,1,2.8c0.6,0.7,1.6,1.1,2.6,1.1c1,0,1.9-0.4,2.6-1.1c0.6-0.7,1-1.6,1-2.8c0-0.9-0.3-1.8-0.8-2.4
		C92.9,19.6,92.2,19.1,91.3,19L91.3,19z"/>
	<path class="st0" d="M106.2,25.3l-0.1-1.6l0,0v-5.4c0-0.3,0.2-0.6,0.5-0.6c0.1,0,0.2,0,0.3-0.1l0,0c0.1,0,0.2,0,0.3,0.1
		c0.3,0.1,0.5,0.3,0.5,0.7V27c0,0.2-0.1,0.4-0.2,0.6c-0.1,0.1-0.3,0.2-0.5,0.3h0c-0.2,0-0.3,0-0.5,0c-0.2-0.1-0.4-0.2-0.6-0.4
		l-5.3-7.1l0.1,1.4l0,0v5.4c0,0.4-0.2,0.6-0.5,0.7h0c-0.1,0-0.2,0.1-0.3,0.1v0c-0.1,0-0.2,0-0.3-0.1c-0.3-0.1-0.5-0.3-0.5-0.7v-8.8
		c0-0.2,0.1-0.4,0.2-0.6c0.1-0.1,0.2-0.2,0.4-0.3c0.1,0,0.3,0,0.5,0c0.2,0.1,0.4,0.2,0.5,0.4l0,0L106.2,25.3L106.2,25.3z"/>
	<path class="st0" d="M84.2,27.4L84.2,27.4c-0.1,0.2-0.4,0.4-0.7,0.4h-6.3c-0.3,0-0.5-0.1-0.6-0.2c-0.1-0.1-0.2-0.3-0.2-0.6v-8.8
		c0-0.4,0.2-0.6,0.5-0.7l0,0c0.1,0,0.2-0.1,0.3-0.1c0.1,0,0.2,0,0.3,0.1c0.3,0.1,0.5,0.3,0.5,0.7v8.1h5.5c0.4,0,0.6,0.2,0.7,0.4l0,0
		c0,0.1,0.1,0.2,0.1,0.3C84.3,27.2,84.3,27.3,84.2,27.4L84.2,27.4z"/>
	<path class="st0" d="M72.1,23.5h-5.5v2.9h5.8c0.3,0,0.6,0.2,0.7,0.4h0c0,0.1,0.1,0.2,0.1,0.3c0,0.1,0,0.2-0.1,0.3
		c-0.1,0.2-0.3,0.4-0.7,0.4H66c-0.3,0-0.5-0.1-0.6-0.2l0,0c-0.2-0.2-0.3-0.4-0.3-0.6v-8.4c0-0.2,0.1-0.5,0.3-0.6v0
		c0.2-0.1,0.4-0.2,0.6-0.2h6.5c0.3,0,0.5,0.2,0.6,0.4v0c0,0.1,0.1,0.2,0.1,0.3h0c0,0.1,0,0.2-0.1,0.3c-0.1,0.2-0.3,0.4-0.6,0.4h-5.8
		v3h5.5c0.3,0,0.5,0.2,0.6,0.4l0,0c0,0.1,0.1,0.2,0.1,0.3c0,0.1,0,0.2,0,0.3C72.7,23.3,72.5,23.5,72.1,23.5L72.1,23.5z"/>
	<path class="st0" d="M52.7,18l3.6,5.5l3.5-5.5c0.1-0.2,0.3-0.3,0.5-0.4h0c0.1,0,0.3,0,0.4,0c0.1,0,0.3,0.1,0.3,0.2l0,0
		c0.1,0.1,0.2,0.3,0.2,0.6v8.8c0,0.4-0.2,0.6-0.5,0.7c-0.1,0-0.2,0.1-0.3,0.1c-0.1,0-0.2,0-0.3-0.1c-0.3-0.1-0.5-0.3-0.5-0.7v-6.3
		L57,25.2c-0.1,0.2-0.2,0.3-0.4,0.3c-0.1,0.1-0.2,0.1-0.4,0.1h0c-0.1,0-0.3,0-0.4-0.1c-0.1-0.1-0.2-0.2-0.3-0.3l-2.7-4.3v6.2
		c0,0.4-0.2,0.6-0.5,0.7c-0.1,0-0.2,0.1-0.3,0.1c-0.1,0-0.2,0-0.3-0.1c-0.3-0.1-0.5-0.3-0.5-0.7v-8.8c0-0.2,0.1-0.4,0.2-0.6
		c0.1-0.1,0.2-0.2,0.3-0.2v0c0.1,0,0.3,0,0.4,0C52.4,17.7,52.6,17.8,52.7,18L52.7,18z"/>
</g>
</svg>
